<svg viewBox="0 0 64 64" fill="none" xmlns="http://www.w3.org/2000/svg">
  <circle cx="32" cy="32" r="30" fill="#c8a8f0" stroke="#0a0a0a" stroke-width="3"/>
  <path d="M32 18c-7.7 0-14 6.3-14 14" stroke="#0a0a0a" stroke-width="2.5" stroke-linecap="round" fill="none" opacity="0.3"/>
  <path d="M32 18c7.7 0 14 6.3 14 14" stroke="#0a0a0a" stroke-width="2.5" stroke-linecap="round" fill="none" opacity="0.3"/>
  <path d="M32 24c-4.4 0-8 3.6-8 8v4" stroke="#7000ff" stroke-width="2.5" stroke-linecap="round" fill="none"/>
  <path d="M32 24c4.4 0 8 3.6 8 8v2" stroke="#7000ff" stroke-width="2.5" stroke-linecap="round" fill="none"/>
  <path d="M32 30c-1.1 0-2 .9-2 2v6" stroke="#0a0a0a" stroke-width="2.5" stroke-linecap="round" fill="none" opacity="0.7"/>
  <path d="M32 30c1.1 0 2 .9 2 2v4" stroke="#0a0a0a" stroke-width="2.5" stroke-linecap="round" fill="none" opacity="0.7"/>
  <path d="M28 38c0 2.2 1.8 4 4 4s4-1.8 4-4" stroke="#7000ff" stroke-width="2.5" stroke-linecap="round" fill="none"/>
</svg>
